<svg width="25" height="37" viewBox="0 0 25 37" fill="none" xmlns="http://www.w3.org/2000/svg">
<path d="M23.4375 9.3803H18.75V7.54994C18.75 5.60818 18.0915 3.74595 16.9194 2.37291C15.7473 0.999878 14.1576 0.228516 12.5 0.228516C10.8424 0.228516 9.25268 0.999878 8.08058 2.37291C6.90848 3.74595 6.25 5.60818 6.25 7.54994V9.3803H1.5625C1.1481 9.3803 0.750672 9.57314 0.457646 9.9164C0.16462 10.2597 0 10.7252 0 11.2107V31.3446C0 32.8009 0.49386 34.1976 1.37294 35.2274C2.25201 36.2571 3.4443 36.8357 4.6875 36.8357H20.3125C21.5557 36.8357 22.748 36.2571 23.6271 35.2274C24.5061 34.1976 25 32.8009 25 31.3446V11.2107C25 10.7252 24.8354 10.2597 24.5424 9.9164C24.2493 9.57314 23.8519 9.3803 23.4375 9.3803ZM9.375 7.54994C9.375 6.57906 9.70424 5.64795 10.2903 4.96143C10.8763 4.27491 11.6712 3.88923 12.5 3.88923C13.3288 3.88923 14.1237 4.27491 14.7097 4.96143C15.2958 5.64795 15.625 6.57906 15.625 7.54994V9.3803H9.375V7.54994ZM21.875 31.3446C21.875 31.83 21.7104 32.2956 21.4174 32.6388C21.1243 32.9821 20.7269 33.1749 20.3125 33.1749H4.6875C4.2731 33.1749 3.87567 32.9821 3.58265 32.6388C3.28962 32.2956 3.125 31.83 3.125 31.3446V13.041H6.25V14.8714C6.25 15.3568 6.41462 15.8224 6.70765 16.1656C7.00067 16.5089 7.3981 16.7017 7.8125 16.7017C8.2269 16.7017 8.62433 16.5089 8.91735 16.1656C9.21038 15.8224 9.375 15.3568 9.375 14.8714V13.041H15.625V14.8714C15.625 15.3568 15.7896 15.8224 16.0826 16.1656C16.3757 16.5089 16.7731 16.7017 17.1875 16.7017C17.6019 16.7017 17.9993 16.5089 18.2924 16.1656C18.5854 15.8224 18.75 15.3568 18.75 14.8714V13.041H21.875V31.3446Z" fill="#F31D1D"/>
</svg>
