<svg width="50" height="50" viewBox="0 0 50 50" fill="none" xmlns="http://www.w3.org/2000/svg">
<rect x="0.5" y="0.5" width="49" height="49" stroke="#C6C3C3"/>
<path d="M39.2056 18.5726C39.0449 17.9589 38.7303 17.3994 38.2932 16.9501C37.8561 16.5007 37.3119 16.1773 36.715 16.0121C34.5168 15.4005 25.6838 15.4005 25.6838 15.4005C25.6838 15.4005 16.8508 15.4005 14.6527 16.0121C14.0558 16.1773 13.5115 16.5007 13.0745 16.9501C12.6374 17.3994 12.3227 17.9589 12.1621 18.5726C11.7516 20.8772 11.5525 23.2164 11.5672 25.5593C11.5525 27.9023 11.7516 30.2414 12.1621 32.5461C12.3227 33.1597 12.6374 33.7192 13.0745 34.1686C13.5115 34.6179 14.0558 34.9414 14.6527 35.1065C16.8508 35.7181 25.6838 35.7181 25.6838 35.7181C25.6838 35.7181 34.5168 35.7181 36.715 35.1065C37.3119 34.9414 37.8561 34.6179 38.2932 34.1686C38.7303 33.7192 39.0449 33.1597 39.2056 32.5461C39.616 30.2414 39.8152 27.9023 39.8005 25.5593C39.8152 23.2164 39.616 20.8772 39.2056 18.5726ZM22.8605 29.9131V21.2055L30.1911 25.5593L22.8605 29.9131Z" fill="#B9B7B7"/>
</svg>
